<mxfile host="app.diagrams.net" modified="2021-04-22T12:29:30.071Z" agent="5.0 (Windows)" etag="PHeBqcyHz7jEBb-3CDpg" version="14.6.5" type="github">
  <diagram id="hPOX3otXXdinUiPVjppZ" name="Page-1">
    <mxGraphModel dx="1038" dy="547" grid="1" gridSize="10" guides="1" tooltips="1" connect="1" arrows="1" fold="1" page="1" pageScale="1" pageWidth="827" pageHeight="1169" math="0" shadow="0">
      <root>
        <mxCell id="0" />
        <mxCell id="1" parent="0" />
        <mxCell id="xDNZJuZ2kz1FspDbnsoQ-1" value="" style="endArrow=classic;html=1;" edge="1" parent="1">
          <mxGeometry width="50" height="50" relative="1" as="geometry">
            <mxPoint x="160" y="360" as="sourcePoint" />
            <mxPoint x="750" y="360" as="targetPoint" />
          </mxGeometry>
        </mxCell>
        <mxCell id="xDNZJuZ2kz1FspDbnsoQ-2" value="" style="endArrow=classic;html=1;" edge="1" parent="1">
          <mxGeometry width="50" height="50" relative="1" as="geometry">
            <mxPoint x="160" y="360" as="sourcePoint" />
            <mxPoint x="160" y="80" as="targetPoint" />
          </mxGeometry>
        </mxCell>
        <mxCell id="xDNZJuZ2kz1FspDbnsoQ-4" value="" style="endArrow=none;html=1;" edge="1" parent="1">
          <mxGeometry width="50" height="50" relative="1" as="geometry">
            <mxPoint x="240" y="350" as="sourcePoint" />
            <mxPoint x="240" y="370" as="targetPoint" />
          </mxGeometry>
        </mxCell>
        <mxCell id="xDNZJuZ2kz1FspDbnsoQ-8" value="" style="endArrow=none;html=1;fillColor=#FF0000;" edge="1" parent="1">
          <mxGeometry width="50" height="50" relative="1" as="geometry">
            <mxPoint x="320" y="350" as="sourcePoint" />
            <mxPoint x="320" y="370" as="targetPoint" />
          </mxGeometry>
        </mxCell>
        <mxCell id="xDNZJuZ2kz1FspDbnsoQ-9" value="" style="endArrow=none;html=1;fillColor=#FF0000;" edge="1" parent="1">
          <mxGeometry width="50" height="50" relative="1" as="geometry">
            <mxPoint x="400" y="350" as="sourcePoint" />
            <mxPoint x="400" y="370" as="targetPoint" />
          </mxGeometry>
        </mxCell>
        <mxCell id="xDNZJuZ2kz1FspDbnsoQ-10" value="" style="endArrow=none;html=1;fillColor=#FF0000;" edge="1" parent="1">
          <mxGeometry width="50" height="50" relative="1" as="geometry">
            <mxPoint x="480" y="350" as="sourcePoint" />
            <mxPoint x="480" y="370" as="targetPoint" />
          </mxGeometry>
        </mxCell>
        <mxCell id="xDNZJuZ2kz1FspDbnsoQ-11" value="&lt;font style=&quot;font-size: 14px&quot;&gt;10&lt;/font&gt;" style="text;html=1;strokeColor=none;fillColor=none;align=center;verticalAlign=middle;whiteSpace=wrap;rounded=0;" vertex="1" parent="1">
          <mxGeometry x="220" y="370" width="40" height="20" as="geometry" />
        </mxCell>
        <mxCell id="xDNZJuZ2kz1FspDbnsoQ-12" value="&lt;font style=&quot;font-size: 14px&quot;&gt;0&lt;/font&gt;" style="text;html=1;strokeColor=none;fillColor=none;align=center;verticalAlign=middle;whiteSpace=wrap;rounded=0;" vertex="1" parent="1">
          <mxGeometry x="140" y="370" width="40" height="20" as="geometry" />
        </mxCell>
        <mxCell id="xDNZJuZ2kz1FspDbnsoQ-13" value="&lt;font style=&quot;font-size: 14px&quot;&gt;20&lt;/font&gt;" style="text;html=1;strokeColor=none;fillColor=none;align=center;verticalAlign=middle;whiteSpace=wrap;rounded=0;" vertex="1" parent="1">
          <mxGeometry x="300" y="370" width="40" height="20" as="geometry" />
        </mxCell>
        <mxCell id="xDNZJuZ2kz1FspDbnsoQ-14" value="&lt;font style=&quot;font-size: 14px&quot;&gt;30&lt;/font&gt;" style="text;html=1;strokeColor=none;fillColor=none;align=center;verticalAlign=middle;whiteSpace=wrap;rounded=0;" vertex="1" parent="1">
          <mxGeometry x="380" y="370" width="40" height="20" as="geometry" />
        </mxCell>
        <mxCell id="xDNZJuZ2kz1FspDbnsoQ-15" value="" style="endArrow=none;html=1;fillColor=#FF0000;" edge="1" parent="1">
          <mxGeometry width="50" height="50" relative="1" as="geometry">
            <mxPoint x="480" y="370" as="sourcePoint" />
            <mxPoint x="480" y="350" as="targetPoint" />
          </mxGeometry>
        </mxCell>
        <mxCell id="xDNZJuZ2kz1FspDbnsoQ-16" value="&lt;font style=&quot;font-size: 14px&quot;&gt;40&lt;/font&gt;" style="text;html=1;strokeColor=none;fillColor=none;align=center;verticalAlign=middle;whiteSpace=wrap;rounded=0;" vertex="1" parent="1">
          <mxGeometry x="460" y="370" width="40" height="20" as="geometry" />
        </mxCell>
        <mxCell id="xDNZJuZ2kz1FspDbnsoQ-17" value="" style="endArrow=none;html=1;fillColor=#FF0000;" edge="1" parent="1">
          <mxGeometry width="50" height="50" relative="1" as="geometry">
            <mxPoint x="560" y="350" as="sourcePoint" />
            <mxPoint x="560" y="370" as="targetPoint" />
          </mxGeometry>
        </mxCell>
        <mxCell id="xDNZJuZ2kz1FspDbnsoQ-18" value="&lt;font style=&quot;font-size: 14px&quot;&gt;50&lt;/font&gt;" style="text;html=1;strokeColor=none;fillColor=none;align=center;verticalAlign=middle;whiteSpace=wrap;rounded=0;" vertex="1" parent="1">
          <mxGeometry x="540" y="370" width="40" height="20" as="geometry" />
        </mxCell>
        <mxCell id="xDNZJuZ2kz1FspDbnsoQ-19" value="" style="endArrow=none;html=1;fillColor=#FF0000;" edge="1" parent="1">
          <mxGeometry width="50" height="50" relative="1" as="geometry">
            <mxPoint x="640" y="350" as="sourcePoint" />
            <mxPoint x="640" y="370" as="targetPoint" />
          </mxGeometry>
        </mxCell>
        <mxCell id="xDNZJuZ2kz1FspDbnsoQ-20" value="&lt;font style=&quot;font-size: 14px&quot;&gt;60&lt;/font&gt;" style="text;html=1;strokeColor=none;fillColor=none;align=center;verticalAlign=middle;whiteSpace=wrap;rounded=0;" vertex="1" parent="1">
          <mxGeometry x="620" y="370" width="40" height="20" as="geometry" />
        </mxCell>
        <mxCell id="xDNZJuZ2kz1FspDbnsoQ-22" value="&lt;b&gt;&lt;font style=&quot;font-size: 14px&quot;&gt;Hőmérséklet (Celcius fok)&lt;/font&gt;&lt;/b&gt;" style="text;html=1;strokeColor=none;fillColor=none;align=center;verticalAlign=middle;whiteSpace=wrap;rounded=0;" vertex="1" parent="1">
          <mxGeometry x="670" y="380" width="70" height="30" as="geometry" />
        </mxCell>
        <mxCell id="xDNZJuZ2kz1FspDbnsoQ-23" value="" style="endArrow=none;html=1;fillColor=#FF0000;" edge="1" parent="1">
          <mxGeometry width="50" height="50" relative="1" as="geometry">
            <mxPoint x="150" y="200" as="sourcePoint" />
            <mxPoint x="170" y="200" as="targetPoint" />
          </mxGeometry>
        </mxCell>
        <mxCell id="xDNZJuZ2kz1FspDbnsoQ-24" value="" style="endArrow=none;html=1;fillColor=#FF0000;" edge="1" parent="1">
          <mxGeometry width="50" height="50" relative="1" as="geometry">
            <mxPoint x="150" y="280" as="sourcePoint" />
            <mxPoint x="170" y="280" as="targetPoint" />
          </mxGeometry>
        </mxCell>
        <mxCell id="xDNZJuZ2kz1FspDbnsoQ-25" value="&lt;font style=&quot;font-size: 14px&quot;&gt;1&lt;/font&gt;" style="text;html=1;strokeColor=none;fillColor=none;align=center;verticalAlign=middle;whiteSpace=wrap;rounded=0;" vertex="1" parent="1">
          <mxGeometry x="100" y="190" width="40" height="20" as="geometry" />
        </mxCell>
        <mxCell id="xDNZJuZ2kz1FspDbnsoQ-26" value="&lt;font style=&quot;font-size: 14px&quot;&gt;0,5&lt;/font&gt;" style="text;html=1;strokeColor=none;fillColor=none;align=center;verticalAlign=middle;whiteSpace=wrap;rounded=0;" vertex="1" parent="1">
          <mxGeometry x="100" y="270" width="40" height="20" as="geometry" />
        </mxCell>
        <mxCell id="xDNZJuZ2kz1FspDbnsoQ-27" value="&lt;b&gt;&lt;font style=&quot;font-size: 14px&quot;&gt;Tagsági érték&lt;/font&gt;&lt;/b&gt;" style="text;html=1;strokeColor=none;fillColor=none;align=center;verticalAlign=middle;whiteSpace=wrap;rounded=0;" vertex="1" parent="1">
          <mxGeometry x="100" y="120" width="40" height="20" as="geometry" />
        </mxCell>
        <mxCell id="xDNZJuZ2kz1FspDbnsoQ-29" value="" style="endArrow=none;html=1;fillColor=#FF0000;strokeColor=#3333FF;" edge="1" parent="1">
          <mxGeometry width="50" height="50" relative="1" as="geometry">
            <mxPoint x="160" y="200" as="sourcePoint" />
            <mxPoint x="240" y="200" as="targetPoint" />
          </mxGeometry>
        </mxCell>
        <mxCell id="xDNZJuZ2kz1FspDbnsoQ-30" value="" style="endArrow=none;html=1;strokeColor=#3333FF;fillColor=#FF0000;" edge="1" parent="1">
          <mxGeometry width="50" height="50" relative="1" as="geometry">
            <mxPoint x="240" y="200" as="sourcePoint" />
            <mxPoint x="320" y="360" as="targetPoint" />
          </mxGeometry>
        </mxCell>
        <mxCell id="xDNZJuZ2kz1FspDbnsoQ-31" value="" style="endArrow=none;html=1;strokeColor=#FF8000;fillColor=#FF0000;" edge="1" parent="1">
          <mxGeometry width="50" height="50" relative="1" as="geometry">
            <mxPoint x="320" y="360" as="sourcePoint" />
            <mxPoint x="400" y="200" as="targetPoint" />
          </mxGeometry>
        </mxCell>
        <mxCell id="xDNZJuZ2kz1FspDbnsoQ-32" value="" style="endArrow=none;html=1;strokeColor=#FF8000;fillColor=#FF0000;" edge="1" parent="1">
          <mxGeometry width="50" height="50" relative="1" as="geometry">
            <mxPoint x="400" y="200" as="sourcePoint" />
            <mxPoint x="480" y="360" as="targetPoint" />
          </mxGeometry>
        </mxCell>
        <mxCell id="xDNZJuZ2kz1FspDbnsoQ-33" value="" style="endArrow=none;html=1;strokeColor=#FF0000;fillColor=#FF0000;" edge="1" parent="1">
          <mxGeometry width="50" height="50" relative="1" as="geometry">
            <mxPoint x="480" y="360" as="sourcePoint" />
            <mxPoint x="560" y="200" as="targetPoint" />
          </mxGeometry>
        </mxCell>
        <mxCell id="xDNZJuZ2kz1FspDbnsoQ-34" value="" style="endArrow=none;html=1;strokeColor=#FF0000;fillColor=#FF0000;" edge="1" parent="1">
          <mxGeometry width="50" height="50" relative="1" as="geometry">
            <mxPoint x="560" y="200" as="sourcePoint" />
            <mxPoint x="640" y="200" as="targetPoint" />
          </mxGeometry>
        </mxCell>
        <mxCell id="xDNZJuZ2kz1FspDbnsoQ-35" value="" style="endArrow=none;html=1;strokeColor=#00FFFF;fillColor=#FF0000;" edge="1" parent="1">
          <mxGeometry width="50" height="50" relative="1" as="geometry">
            <mxPoint x="240" y="360" as="sourcePoint" />
            <mxPoint x="320" y="200" as="targetPoint" />
          </mxGeometry>
        </mxCell>
        <mxCell id="xDNZJuZ2kz1FspDbnsoQ-36" value="" style="endArrow=none;html=1;strokeColor=#00FFFF;fillColor=#FF0000;" edge="1" parent="1">
          <mxGeometry width="50" height="50" relative="1" as="geometry">
            <mxPoint x="320" y="200" as="sourcePoint" />
            <mxPoint x="400" y="360" as="targetPoint" />
          </mxGeometry>
        </mxCell>
        <mxCell id="xDNZJuZ2kz1FspDbnsoQ-37" value="" style="endArrow=none;html=1;strokeColor=#FFFF33;fillColor=#FF0000;" edge="1" parent="1">
          <mxGeometry width="50" height="50" relative="1" as="geometry">
            <mxPoint x="400" y="360" as="sourcePoint" />
            <mxPoint x="480" y="200" as="targetPoint" />
          </mxGeometry>
        </mxCell>
        <mxCell id="xDNZJuZ2kz1FspDbnsoQ-38" value="" style="endArrow=none;html=1;strokeColor=#FFFF33;fillColor=#FF0000;" edge="1" parent="1">
          <mxGeometry width="50" height="50" relative="1" as="geometry">
            <mxPoint x="480" y="200" as="sourcePoint" />
            <mxPoint x="560" y="360" as="targetPoint" />
          </mxGeometry>
        </mxCell>
        <mxCell id="xDNZJuZ2kz1FspDbnsoQ-39" value="" style="ellipse;whiteSpace=wrap;html=1;aspect=fixed;fillColor=#0000FF;" vertex="1" parent="1">
          <mxGeometry x="200" y="160" width="10" height="10" as="geometry" />
        </mxCell>
        <mxCell id="xDNZJuZ2kz1FspDbnsoQ-40" value="Nagyon hideg" style="text;html=1;strokeColor=none;fillColor=none;align=center;verticalAlign=middle;whiteSpace=wrap;rounded=0;" vertex="1" parent="1">
          <mxGeometry x="220" y="155" width="40" height="20" as="geometry" />
        </mxCell>
        <mxCell id="xDNZJuZ2kz1FspDbnsoQ-41" value="" style="ellipse;whiteSpace=wrap;html=1;aspect=fixed;fillColor=#FF0000;" vertex="1" parent="1">
          <mxGeometry x="555" y="160" width="10" height="10" as="geometry" />
        </mxCell>
        <mxCell id="xDNZJuZ2kz1FspDbnsoQ-42" value="" style="ellipse;whiteSpace=wrap;html=1;aspect=fixed;fillColor=#FFFF33;direction=south;" vertex="1" parent="1">
          <mxGeometry x="475" y="160" width="10" height="10" as="geometry" />
        </mxCell>
        <mxCell id="xDNZJuZ2kz1FspDbnsoQ-43" value="" style="ellipse;whiteSpace=wrap;html=1;aspect=fixed;fillColor=#33FFFF;" vertex="1" parent="1">
          <mxGeometry x="290" y="160" width="10" height="10" as="geometry" />
        </mxCell>
        <mxCell id="xDNZJuZ2kz1FspDbnsoQ-45" value="" style="ellipse;whiteSpace=wrap;html=1;aspect=fixed;fillColor=#FF8000;" vertex="1" parent="1">
          <mxGeometry x="395" y="160" width="10" height="10" as="geometry" />
        </mxCell>
        <mxCell id="xDNZJuZ2kz1FspDbnsoQ-51" value="Hideg" style="text;html=1;strokeColor=none;fillColor=none;align=center;verticalAlign=middle;whiteSpace=wrap;rounded=0;" vertex="1" parent="1">
          <mxGeometry x="310" y="155" width="40" height="20" as="geometry" />
        </mxCell>
        <mxCell id="xDNZJuZ2kz1FspDbnsoQ-52" value="Langyos" style="text;html=1;strokeColor=none;fillColor=none;align=center;verticalAlign=middle;whiteSpace=wrap;rounded=0;" vertex="1" parent="1">
          <mxGeometry x="414" y="155" width="40" height="20" as="geometry" />
        </mxCell>
        <mxCell id="xDNZJuZ2kz1FspDbnsoQ-57" value="Meleg" style="text;html=1;strokeColor=none;fillColor=none;align=center;verticalAlign=middle;whiteSpace=wrap;rounded=0;" vertex="1" parent="1">
          <mxGeometry x="490" y="155" width="40" height="20" as="geometry" />
        </mxCell>
        <mxCell id="xDNZJuZ2kz1FspDbnsoQ-59" value="Nagyon meleg" style="text;html=1;strokeColor=none;fillColor=none;align=center;verticalAlign=middle;whiteSpace=wrap;rounded=0;" vertex="1" parent="1">
          <mxGeometry x="580" y="155" width="40" height="20" as="geometry" />
        </mxCell>
      </root>
    </mxGraphModel>
  </diagram>
</mxfile>
